<svg xmlns="http://www.w3.org/2000/svg" xmlns:svg="http://www.w3.org/2000/svg" id="svg2" width="693" height="702" version="1.1" viewBox="696 -12 9285 9379"><metadata id="metadata72"/><defs id="defs70"><marker id="Arrow2Lend" orient="auto" overflow="visible" refX="0" refY="0"><path id="path4044" fill-rule="evenodd" stroke-linejoin="round" stroke-width=".625" d="M 8.7185878,4.0337352 -2.2072895,0.01601326 8.7185884,-4.0017078 c -1.7454984,2.3720609 -1.7354408,5.6174519 -6e-7,8.035443 z" transform="matrix(-1.1,0,0,-1.1,-1.1,0)"/></marker><marker id="Arrow2Lend-1" orient="auto" overflow="visible" refX="0" refY="0"><path id="path4044-7" fill-rule="evenodd" stroke-linejoin="round" stroke-width=".625" d="M 8.7185878,4.0337352 -2.2072895,0.01601326 8.7185884,-4.0017078 c -1.7454984,2.3720609 -1.7354408,5.6174519 -6e-7,8.035443 z" transform="matrix(-1.1,0,0,-1.1,-1.1,0)"/></marker><marker id="Arrow2Lend-0" orient="auto" overflow="visible" refX="0" refY="0"><path id="path4044-4" fill-rule="evenodd" stroke-linejoin="round" stroke-width=".625" d="M 8.7185878,4.0337352 -2.2072895,0.01601326 8.7185884,-4.0017078 c -1.7454984,2.3720609 -1.7354408,5.6174519 -6e-7,8.035443 z" transform="matrix(-1.1,0,0,-1.1,-1.1,0)"/></marker><marker id="Arrow2Lend-7" orient="auto" overflow="visible" refX="0" refY="0"><path id="path4044-77" fill-rule="evenodd" stroke-linejoin="round" stroke-width=".625" d="M 8.7185878,4.0337352 -2.2072895,0.01601326 8.7185884,-4.0017078 c -1.7454984,2.3720609 -1.7354408,5.6174519 -6e-7,8.035443 z" transform="matrix(-1.1,0,0,-1.1,-1.1,0)"/></marker><marker id="Arrow2Lend-2" orient="auto" overflow="visible" refX="0" refY="0"><path id="path4044-0" fill-rule="evenodd" stroke-linejoin="round" stroke-width=".625" d="M 8.7185878,4.0337352 -2.2072895,0.01601326 8.7185884,-4.0017078 c -1.7454984,2.3720609 -1.7354408,5.6174519 -6e-7,8.035443 z" transform="matrix(-1.1,0,0,-1.1,-1.1,0)"/></marker></defs><g id="g4" fill="none" stroke-width="2.4" transform="translate(0,-4.6153837e-6)"><rect id="rect44" width="4786.469" height="755" x="2766.245" y="236" stroke="#000" stroke-linecap="butt" stroke-linejoin="miter" stroke-width="6.036" rx="62.613"/><rect id="rect46" width="6359.457" height="2063.377" x="1979.751" y="0" stroke="#00008f" stroke-dasharray="8.076 25.035" stroke-linecap="butt" stroke-linejoin="miter" stroke-width="6.461" rx="75.552"/><text id="text58" x="3908.363" y="1889" fill="#000" font-family="Times" font-size="189" font-style="normal" font-weight="bold" text-anchor="start" xml:space="preserve" style="line-height:125%"><tspan id="tspan3067" font-family="Sans" font-size="214.372" font-stretch="normal" font-style="normal" font-variant="normal" font-weight="bold" text-anchor="start" writing-mode="lr-tb" style="text-align:start;line-height:125%;-inkscape-font-specification:Sans Bold">Create a stack of caches</tspan></text><g id="g4502" transform="translate(-912.17935,-457.94377)"><polyline id="polyline14" stroke="#000" stroke-linecap="butt" stroke-linejoin="miter" stroke-width="8" points="4724 6850 4724 7322" transform="translate(300.72149,0)"/><polyline id="polyline16" stroke="#000" stroke-linecap="butt" stroke-linejoin="miter" stroke-width="8" points="7322 6850 7322 7322" transform="translate(-326.62389,-14.090577)"/><rect id="rect34" width="1428.977" height="472" x="4310.233" y="7322" stroke="#000" stroke-linecap="butt" stroke-linejoin="miter" stroke-width="6.222" rx="66.548"/><rect id="rect36" width="1675.003" height="472" x="6157.874" y="7307.909" stroke="#000" stroke-linecap="butt" stroke-linejoin="miter" stroke-width="6.737" rx="78.006"/><rect id="rect38" width="3522.551" height="708" x="4309.991" y="6141" stroke="#000" stroke-linecap="butt" stroke-linejoin="miter" stroke-width="5.838" rx="0"/><text id="text54" x="6413.821" y="7607.508" fill="#000" font-family="Times" font-size="189" font-style="normal" font-weight="bold" text-anchor="start" xml:space="preserve">Selected cache</text><text id="text56" x="5877.913" y="7638.909" fill="#000" font-family="Helvetica" font-size="315" font-style="normal" font-weight="bold" text-anchor="start" xml:space="preserve">+</text><text id="text62" x="5214.808" y="6540.927" fill="#000" font-family="Times" font-size="189" font-style="normal" font-weight="bold" text-anchor="start" xml:space="preserve">Overlay mount paths</text><text id="text64" x="4650.027" y="7621.977" fill="#000" font-family="Times" font-size="189" font-style="normal" font-weight="bold" text-anchor="start" xml:space="preserve">kiwi-root</text></g><text id="text3061" x="3448.583" y="534.995" fill="#000" fill-opacity="1" stroke="none" font-family="Sans" font-size="214.372" font-stretch="normal" font-style="normal" font-variant="normal" font-weight="normal" letter-spacing="0" word-spacing="0" xml:space="preserve" style="line-height:125%;-inkscape-font-specification:Adobe Courier"><tspan id="tspan3063" x="3448.583" y="534.995">kiwi --init-cache /cache/image/path \</tspan><tspan id="tspan3065" x="3448.583" y="802.96">[ --cache /var/cache/kiwi/image</tspan></text><path id="path3069" fill="none" stroke="#000" stroke-linecap="butt" stroke-linejoin="miter" stroke-opacity="1" stroke-width="13.398" marker-end="url(#Arrow2Lend)" marker-start="none" d="m 5154.5079,1137.3044 7.0453,436.8078"/><path id="path3069-3" fill="none" stroke="#000" stroke-linecap="butt" stroke-linejoin="miter" stroke-opacity="1" stroke-width="13.398" marker-end="url(#Arrow2Lend)" marker-start="none" d="m 5154.5079,2160.3727 7.0453,436.8078"/><path id="path3069-7" fill="none" stroke="#000" stroke-linecap="butt" stroke-linejoin="miter" stroke-opacity="1" stroke-width="13.398" marker-end="url(#Arrow2Lend)" marker-start="none" d="m 5154.5079,3618.7474 7.0453,436.8078"/><g id="g4665" transform="translate(264.19824,-267.72097)"><rect id="rect26-5" width="2085.23" height="724.459" x="3880.94" y="3045.634" fill="#000" stroke="#000" stroke-linecap="butt" stroke-linejoin="miter" stroke-width="6.279" rx="88.289"/><rect id="rect28-2" width="2085.23" height="724.459" x="3824.392" y="2985.319" fill="#e5e5e5" stroke="#000" stroke-linecap="butt" stroke-linejoin="miter" stroke-width="6.279" rx="88.289"/><text id="text52" x="4331.661" y="3395.838" fill="#000" font-family="Helvetica" font-size="189" font-style="normal" font-weight="bold" text-anchor="start" xml:space="preserve">Image Build</text></g><path id="path3069-7-6" fill="none" stroke="#000" stroke-linecap="butt" stroke-linejoin="miter" stroke-opacity="1" stroke-width="13.398" marker-end="url(#Arrow2Lend)" marker-start="none" d="m 5178.8776,5070.0769 7.0453,436.8078"/><path id="path3069-7-6-2" fill="none" stroke="#000" stroke-linecap="butt" stroke-linejoin="miter" stroke-opacity="1" stroke-width="13.398" marker-end="url(#Arrow2Lend)" marker-start="none" d="m 5154.5079,7486.6109 7.0453,436.8078"/><g id="g4685" transform="translate(32.172976,-345.21915)"><rect id="rect26-5-6" width="2085.23" height="724.459" x="4112.965" y="8463.461" fill="#000" stroke="#000" stroke-linecap="butt" stroke-linejoin="miter" stroke-width="6.279" rx="88.289"/><rect id="rect28-2-03" width="2085.23" height="724.459" x="4056.418" y="8403.147" fill="#e5e5e5" stroke="#000" stroke-linecap="butt" stroke-linejoin="miter" stroke-width="6.279" rx="88.289"/><text id="text66" x="4254.1" y="8813.666" fill="#000" font-family="Helvetica" font-size="189" font-style="normal" font-weight="bold" text-anchor="start" xml:space="preserve">Result tree / image</text></g><g id="g4676" transform="translate(60.173828,-472.03434)"><rect id="rect26-5-8" width="2085.23" height="724.459" x="4084.964" y="4743.548" fill="#000" stroke="#000" stroke-linecap="butt" stroke-linejoin="miter" stroke-width="6.279" rx="88.289"/><rect id="rect28-2-0" width="2085.23" height="724.459" x="4028.417" y="4683.234" fill="#e5e5e5" stroke="#000" stroke-linecap="butt" stroke-linejoin="miter" stroke-width="6.279" rx="88.289"/><g id="g4672" transform="translate(1.6113281e-4,-20.571112)"><text id="text48" x="4564.231" y="4998.766" fill="#000" font-family="Helvetica" font-size="189" font-style="normal" font-weight="bold" text-anchor="start" xml:space="preserve">Cache pool</text><text id="text50" x="4287.088" y="5234.766" fill="#000" font-family="Times" font-size="177" font-style="normal" font-weight="normal" text-anchor="start" xml:space="preserve">/var/cache/kiwi/image</text></g></g></g></svg>